<?xml version="1.0" encoding="iso-8859-1"?>
<!-- Generator: Adobe Illustrator 19.0.0, SVG Export Plug-In . SVG Version: 6.00 Build 0)  -->
<svg version="1.1" id="Layer_1" xmlns="http://www.w3.org/2000/svg" xmlns:xlink="http://www.w3.org/1999/xlink" x="0px" y="0px"
	 viewBox="0 0 512 512" style="enable-background:new 0 0 512 512;" xml:space="preserve">
<g>
	<g>
		<path d="M332.306,265.765l-13.602,7.791c11.522,20.118,18.143,42.8,19.366,66.031h-62.825
			c-1.565-17.475-8.35-33.862-19.603-47.329l14.005-14.005l-11.084-11.083l-24.84,24.841l5.541,5.541
			c13.324,13.324,20.661,31.035,20.661,49.871c0,38.892-31.64,70.533-70.533,70.533s-70.533-31.64-70.533-70.533
			s31.64-70.533,70.533-70.533h7.837v-78.148c21.916,1.156,43.419,7.127,62.627,17.472l7.433-13.799
			c-23.77-12.801-50.705-19.568-77.896-19.568c-90.748,0-164.576,73.828-164.576,164.576S98.646,512,189.394,512
			S353.97,438.172,353.97,347.424C353.97,318.747,346.479,290.51,332.306,265.765z M181.556,198.729v62.843
			c-17.896,1.619-34.228,8.734-47.298,19.635l-44.415-44.416C114.425,214.65,146.394,200.56,181.556,198.729z M78.76,247.874
			l44.416,44.416c-10.901,13.07-18.006,29.403-19.626,47.298H40.696C42.528,304.425,56.619,272.457,78.76,247.874z M40.696,355.261
			h62.862c1.621,17.893,8.721,34.224,19.621,47.293l-44.419,44.42C56.619,422.392,42.529,390.424,40.696,355.261z M181.556,496.12
			c-35.162-1.832-67.13-15.922-91.712-38.063l44.419-44.42c13.069,10.9,29.4,18,47.293,19.621V496.12z M197.229,496.12v-62.862
			c17.893-1.621,34.225-8.721,47.293-19.621l44.419,44.42C264.36,480.199,232.391,494.289,197.229,496.12z M300.025,446.974
			l-44.419-44.42c10.9-13.069,17.999-29.4,19.621-47.293h62.862C336.257,390.423,322.167,422.391,300.025,446.974z"/>
	</g>
</g>
<g>
	<g>
		<path d="M478.78,8.402c-11.203-11.204-29.435-11.203-40.639,0l-31.399,31.4l-9.237-9.237l-11.081,11.084l9.237,9.237
			l-75.737,75.738c-9.282,9.282-10.866,23.385-4.767,34.322l-13.705,13.705l11.084,11.083l13.704-13.704
			c4.336,2.418,9.168,3.635,14.003,3.635c7.358,0,14.717-2.8,20.319-8.403l75.737-75.737l9.235,9.235l11.081-11.083l-9.234-9.234
			l31.4-31.4C489.984,37.837,489.984,19.607,478.78,8.402z M349.477,156.178c-5.092,5.092-13.379,5.093-18.471,0
			c-5.093-5.093-5.093-13.379,0-18.472l75.737-75.737l18.472,18.472L349.477,156.178z M467.698,37.958l-31.4,31.4l-18.472-18.472
			l31.399-31.399c2.548-2.548,5.892-3.82,9.237-3.82s6.69,1.274,9.236,3.819C472.791,24.579,472.791,32.865,467.698,37.958z"/>
	</g>
</g>
<g>
	<g>
		<path d="M310.638,213.771c-5.319-9.168-10.559-16.772-10.779-17.092l-6.448-9.335l-6.448,9.335
			c-0.22,0.32-5.462,7.924-10.779,17.092c-10.315,17.781-11.508,25.158-11.508,29.16c0,15.845,12.891,28.736,28.736,28.736
			s28.736-12.89,28.736-28.736C322.145,238.929,320.952,231.552,310.638,213.771z M293.41,255.994
			c-7.203,0-13.062-5.859-13.062-13.062c0-4.189,5.997-16.004,13.062-27.451c7.065,11.447,13.062,23.262,13.062,27.451
			C306.471,250.135,300.613,255.994,293.41,255.994z"/>
	</g>
</g>
<g>
</g>
<g>
</g>
<g>
</g>
<g>
</g>
<g>
</g>
<g>
</g>
<g>
</g>
<g>
</g>
<g>
</g>
<g>
</g>
<g>
</g>
<g>
</g>
<g>
</g>
<g>
</g>
<g>
</g>
</svg>
