<?xml version="1.0" encoding="iso-8859-1"?>
<!-- Generator: Adobe Illustrator 19.0.0, SVG Export Plug-In . SVG Version: 6.00 Build 0)  -->
<svg version="1.1" id="Capa_1" xmlns="http://www.w3.org/2000/svg" xmlns:xlink="http://www.w3.org/1999/xlink" x="0px" y="0px"
	 viewBox="0 0 512 512" style="enable-background:new 0 0 512 512;" xml:space="preserve">
<g>
	<g>
		<path d="M162.92,98.93c-1.87-1.86-4.44-2.93-7.07-2.93s-5.21,1.07-7.069,2.93c-1.87,1.86-2.931,4.44-2.931,7.07
			s1.061,5.21,2.931,7.07c1.859,1.86,4.429,2.93,7.069,2.93c2.629,0,5.209-1.07,7.07-2.93c1.861-1.86,2.93-4.44,2.93-7.07
			S164.78,100.79,162.92,98.93z"/>
	</g>
</g>
<g>
	<g>
		<path d="M124.727,0H10C4.478,0,0,4.477,0,10v114.727c0,5.523,4.478,10,10,10s10-4.477,10-10V20h104.727c5.522,0,10-4.477,10-10
			S130.249,0,124.727,0z"/>
	</g>
</g>
<g>
	<g>
		<path d="M502,0H387.273c-5.522,0-10,4.477-10,10s4.478,10,10,10H492v104.727c0,5.523,4.478,10,10,10c5.522,0,10-4.477,10-10V10
			C512,4.477,507.522,0,502,0z"/>
	</g>
</g>
<g>
	<g>
		<path d="M502,377.273c-5.522,0-10,4.477-10,10V492H387.273c-5.522,0-10,4.477-10,10s4.478,10,10,10H502c5.522,0,10-4.477,10-10
			V387.273C512,381.75,507.522,377.273,502,377.273z"/>
	</g>
</g>
<g>
	<g>
		<path d="M124.727,492H20V387.273c0-5.523-4.478-10-10-10s-10,4.477-10,10V502c0,5.523,4.478,10,10,10h114.727
			c5.522,0,10-4.477,10-10S130.249,492,124.727,492z"/>
	</g>
</g>
<g>
	<g>
		<path d="M414.242,48H97.758C70.321,48,48,70.321,48,97.758v316.484c0,0.492,0.023,0.978,0.037,1.466
			c-0.064,0.871-0.018,1.741,0.142,2.591C50.252,443.844,71.688,464,97.758,464H207c5.522,0,10-4.477,10-10s-4.478-10-10-10H97.758
			c-14.935,0-27.332-11.061-29.438-25.421l111.992-193.986c3.021-5.233,8.433-8.358,14.476-8.358c6.044,0,11.456,3.125,14.478,8.358
			L304.185,389c2.762,4.782,8.878,6.423,13.66,3.66c4.783-2.761,6.422-8.877,3.66-13.66l-22.21-38.469l39.495-56.528
			c3.171-4.539,8.166-7.142,13.702-7.142c5.537,0,10.532,2.603,13.703,7.142L444,395.362v18.88C444,430.651,430.65,444,414.242,444
			H302c-5.522,0-10,4.477-10,10s4.478,10,10,10h112.242C441.679,464,464,441.679,464,414.242V97.758
			C464,70.321,441.679,48,414.242,48z M444,360.442l-61.41-87.894c-6.863-9.823-18.114-15.687-30.098-15.687
			c-11.982,0-23.233,5.864-30.097,15.687l-34.14,48.863l-61.671-106.818c-6.637-11.496-18.524-18.358-31.798-18.358
			s-25.16,6.863-31.796,18.358L68,379.131V116h45.784c5.522,0,10-4.477,10-10s-4.478-10-10-10H68.056
			C68.97,80.407,81.94,68,97.758,68h316.484C430.65,68,444,81.349,444,97.758V360.442z"/>
	</g>
</g>
<g>
	<g>
		<path d="M331.175,114.768c-26.066,0-47.273,21.207-47.273,47.273c0,26.066,21.207,47.273,47.273,47.273
			c26.066,0,47.273-21.207,47.273-47.273C378.448,135.975,357.241,114.768,331.175,114.768z M331.175,189.314
			c-15.039,0-27.273-12.235-27.273-27.273c0-15.038,12.234-27.273,27.273-27.273s27.273,12.235,27.273,27.273
			C358.448,177.079,346.214,189.314,331.175,189.314z"/>
	</g>
</g>
<g>
	<g>
		<path d="M263.069,446.93C261.21,445.07,258.63,444,256,444s-5.21,1.07-7.07,2.93S246,451.37,246,454s1.069,5.21,2.93,7.07
			c1.861,1.86,4.44,2.93,7.07,2.93s5.21-1.07,7.069-2.93c1.86-1.86,2.931-4.44,2.931-7.07S264.93,448.79,263.069,446.93z"/>
	</g>
</g>
<g>
</g>
<g>
</g>
<g>
</g>
<g>
</g>
<g>
</g>
<g>
</g>
<g>
</g>
<g>
</g>
<g>
</g>
<g>
</g>
<g>
</g>
<g>
</g>
<g>
</g>
<g>
</g>
<g>
</g>
</svg>
